<svg data-v-423bf9ae="" xmlns="http://www.w3.org/2000/svg" viewBox="0 0 624 580" class="iconAbove"><defs data-v-423bf9ae=""><linearGradient data-v-423bf9ae="" gradientTransform="rotate(25)" id="50f03511-6201-4737-a675-10a280062072" x1="0%" y1="0%" x2="100%" y2="0%"><stop data-v-423bf9ae="" offset="0%" style="stop-color: rgb(240, 80, 0); stop-opacity: 1;"></stop><stop data-v-423bf9ae="" offset="100%" style="stop-color: rgb(247, 170, 0); stop-opacity: 1;"></stop></linearGradient></defs><g data-v-423bf9ae="" id="7308e18e-c90b-4c9c-9a7a-f1d749757f91" transform="matrix(2.539511203765869,0,0,2.539511203765869,-12.93743896484375,-34.33544921875)" stroke="none" fill="url(#50f03511-6201-4737-a675-10a280062072)"><path d="M230.4 178.893v-144H25.6V147.84a12.874 12.874 0 012.457-.256h33.28a12.836 12.836 0 0112.8 12.8v18.509h156.262z"></path><path d="M235.52 13.722H20.48c-8.473.025-15.335 6.886-15.36 15.36v155.341c0 3.865 1.152 7.45 3.277 10.317 1.075 1.434 2.406 2.662 4.019 3.584a11.38 11.38 0 002.944 1.152V29.083c0-1.408.563-2.663 1.511-3.61s2.201-1.511 3.61-1.511h215.04c1.408 0 2.662.563 3.609 1.511s1.511 2.201 1.511 3.61v155.341c0 1.408-.563 2.662-1.511 3.609s-2.202 1.511-3.609 1.511H74.241v10.24h48.793v20.787H76.749v10.24h102.835v-10.24h-46.31v-20.787H235.52c8.474-.025 15.334-6.887 15.36-15.36V29.083c-.025-8.474-6.887-15.335-15.36-15.36z"></path><path d="M47.872 204.518a3.634 3.634 0 11-7.269.001 3.634 3.634 0 017.269-.001zM47.872 176.666a3.634 3.634 0 11-7.269.001 3.634 3.634 0 017.269-.001zM47.872 190.336a3.634 3.634 0 11-7.269.001 3.634 3.634 0 017.269-.001z"></path><path d="M60.391 157.798H29.774c-1.05 0-1.997.435-2.713 1.126a3.792 3.792 0 00-1.127 2.714v74.24a6.418 6.418 0 006.4 6.4h25.497a6.418 6.418 0 006.4-6.4v-74.24c0-1.049-.41-1.997-1.127-2.714s-1.639-1.126-2.714-1.126zm-3.841 16.947v59.853H33.612v-68.966H56.55v9.113z"></path></g><!----></svg>